<svg xmlns="http://www.w3.org/2000/svg" viewBox="0 0 122 43"><path d="M55.51 18.72a.5.5 0 0 1 0 .75c-.36.36-2.35 1.82-3.58 2.69a2.56 2.56 0 0 1-1.74.54H31.64a13.51 13.51 0 0 1-1.75 2.08 16.68 16.68 0 0 1-2.12 1.73 13 13 0 0 1-3.26 1.65 10.52 10.52 0 0 1-3 .64c-.31 0-.47-.13-.52-.33-.15-.64.5-.8 1.39-1.11 4.06-1.39 6.79-3.67 7.7-8.73a30.77 30.77 0 0 0 .39-5.63V4.58C30.47 1.87 28 2 27.22 2a.49.49 0 0 1-.54-.5.51.51 0 0 1 .51-.5H37a.53.53 0 0 1 .48.53A.5.5 0 0 1 37 2c-1.68 0-3.24.83-3.24 2.36v10.77a13.6 13.6 0 0 1-1.37 6.41h5.25s2.12.22 2.12-2.46V6.56A1.7 1.7 0 0 0 38 4.68h-1.26a.51.51 0 0 1-.49-.51.5.5 0 0 1 .5-.5H49a.59.59 0 0 1 .57.48c.21.78.55 2.91.62 3.29s-.08.57-.36.63-.59-.08-.73-.61C48.72 6 48 5 46.14 5h-3.07c-.19 0-.48.1-.48.55v5.85c0 .45.23.6.61.6h2.63c1.07 0 1.57-.78 1.68-1.85.06-.62.15-.92.57-.92a.53.53 0 0 1 .51.55v6a.5.5 0 0 1-.5.51c-.32 0-.49-.26-.5-.58a2.23 2.23 0 0 0-2.14-2.28h-2.54c-.16 0-.32 0-.32.39v6.83a.49.49 0 0 0 .48.48h5.73c2.57 0 5.51-2 6.07-2.46a.47.47 0 0 1 .64 0M65.7 7.17l-.59-3c-.07-.35-.29-.54-.83-.54h-10.9c-.54 0-.76.19-.82.54l-.6 3c-.1.38-.07.79.22.91s.62 0 .78-.48c.27-.91.36-2.55 2.1-2.55h1.68a.57.57 0 0 1 .63.6v13.86c0 2-1 2.16-1.56 2.16h-1.55a.51.51 0 0 0-.53.5.49.49 0 0 0 .53.51h9a.5.5 0 0 0 .48-.51.52.52 0 0 0-.51-.51h-1.38c-.55 0-1.56-.19-1.56-2.19V5.65a.57.57 0 0 1 .63-.6h1.68c1.75 0 1.83 1.64 2.11 2.55.15.52.48.6.78.48s.31-.53.21-.91m19.57 5.15c0 4.93 3.11 8.73 6.92 8.73 5.39 0 7-6.31 5.6-10.51-.87-2.64-3.13-5.2-6.28-5.2-4.35 0-6.24 4.26-6.24 7m-11.42 0a3.64 3.64 0 0 0 3.51-3.88A3.46 3.46 0 0 0 74 5.14h-1.46c-.66 0-.79.42-.79.71v5.47c0 1.09.39 1 .71 1zM96 21.61A8.11 8.11 0 0 1 89 25c-6.66 0-10.49-4.86-11.28-5.63s-4.55-4.23-5-4.69-.5-.58-.67-.58-.31.36-.31.51v5c0 1.28.5 2.12 1.52 2.12h1.14a.53.53 0 0 1 .55.53.46.46 0 0 1-.49.47h-8.3a.51.51 0 0 1-.52-.5.54.54 0 0 1 .58-.54h.84c1.3 0 1.93-.71 1.93-2V7.22c0-1.34-.39-2.45-1.81-2.45h-.52a.51.51 0 0 1-.5-.56c0-.23.3-.45.52-.45h8.52a4.86 4.86 0 0 1 5.14 4.89 5.15 5.15 0 0 1-3.44 4.89c-.79.28-1.21.16-.46.91.58.59 4.24 4.52 6.4 6.36a10.63 10.63 0 0 0 6.56 2.85c1.74 0 2.7-.49 2.58-1.1A9.4 9.4 0 0 1 82.5 13a9.24 9.24 0 0 1 9.23-9.08 9.42 9.42 0 0 1 5.34 1.58A8.91 8.91 0 0 1 101 13a9.85 9.85 0 0 1-5 8.61zM3.26 34.25H2.17v4.15c0 .46-.14.85-.67.85a1.24 1.24 0 0 1-.5-.11v.93a2.4 2.4 0 0 0 .78.14c.79 0 1.48-.52 1.48-1.8v-4.16M6.37 38v.25c0 .77-.23 1.24-.86 1.24a.63.63 0 0 1-.67-.67c0-.63.53-.82 1.43-.82h.1m-2-1.12a2 2 0 0 1 1.2-.42.76.76 0 0 1 .82.83v.16h-.24c-1.33 0-2.3.29-2.3 1.47a1.26 1.26 0 0 0 1.31 1.28 1.41 1.41 0 0 0 1.22-.66 2.19 2.19 0 0 0 .06.59h1a6.34 6.34 0 0 1-.06-.77v-1.89c0-1.09-.31-1.75-1.67-1.75a3.18 3.18 0 0 0-1.42.28zm5.86 2.55c-.57 0-.81-.62-.81-1.46s.21-1.48.83-1.48S11 37 11 38s-.2 1.43-.79 1.43M8.34 42H9.4v-2.5a1.19 1.19 0 0 0 1.13.7c1 0 1.51-.83 1.51-2.25 0-1.2-.45-2.23-1.53-2.23a1.19 1.19 0 0 0-1.17.74v-.67h-1a5 5 0 0 1 0 .74zm6.83-4v.25c0 .77-.23 1.24-.86 1.24a.64.64 0 0 1-.67-.67c0-.63.54-.82 1.44-.82h.09m-2-1.12a2 2 0 0 1 1.2-.42.75.75 0 0 1 .81.83v.16H15c-1.33 0-2.3.29-2.3 1.47A1.25 1.25 0 0 0 14 40.2a1.44 1.44 0 0 0 1.23-.66 2.19 2.19 0 0 0 .06.59h1a6.72 6.72 0 0 1-.05-.77v-1.89c0-1.09-.32-1.75-1.68-1.75a3.13 3.13 0 0 0-1.46.28zm4-.38v3.63h1.05V37.6c0-.56.2-1 .75-1s.6.28.6.94v2.61h1.06v-2.8c0-.88-.3-1.61-1.29-1.61a1.29 1.29 0 0 0-1.17.73v-.66h-1v.71m6.77-2.25v5.88h3.2v-.86H25v-1.76h1.9v-.86H25V35.1h2v-.85h-3.1m5 3.54l-1.32 2.34h1.12l.81-1.61.81 1.61h1.16l-1.32-2.34 1.22-2h-1.14l-.72 1.39-.69-1.39h-1.19l1.21 2m3.46-2.9v.9h-.69v.76h.69v2.38c0 .91.44 1.27 1.22 1.27a1.57 1.57 0 0 0 .71-.15v-.74a.87.87 0 0 1-.4.09c-.31 0-.48-.13-.48-.59v-2.26h.88v-.76h-.88v-1.22l-1 .32m5 2.69h-1.55c0-.57.23-1.15.78-1.15s.73.39.73 1.15m.75 1.51a1.72 1.72 0 0 1-1.15.34c-.81 0-1.11-.45-1.11-1.19h2.53V38c0-1.77-.81-2.32-1.75-2.32-1.11 0-1.8 1-1.8 2.3a2 2 0 0 0 2 2.18 3.32 3.32 0 0 0 1.31-.28zm1.12-2.59v3.63h1.05v-2.38c0-.81.48-1.07.91-1.07a1.45 1.45 0 0 1 .3 0v-1a1 1 0 0 0-.18 0 1.2 1.2 0 0 0-1.11.86v-.79h-1a4.87 4.87 0 0 1 0 .71m3 0v3.63h1.04V37.6c0-.56.19-1 .74-1s.61.28.61.94v2.61h1.05v-2.8c0-.88-.3-1.61-1.29-1.61a1.29 1.29 0 0 0-1.17.73v-.66h-1v.71M48.83 38v.25c0 .77-.23 1.24-.86 1.24a.64.64 0 0 1-.67-.67c0-.63.54-.82 1.44-.82h.09m-2-1.12a2 2 0 0 1 1.2-.42.75.75 0 0 1 .81.83v.16h-.21c-1.33 0-2.3.29-2.3 1.47a1.26 1.26 0 0 0 1.31 1.28 1.42 1.42 0 0 0 1.22-.66 1.85 1.85 0 0 0 .06.59h1a4.8 4.8 0 0 1-.06-.77v-1.89c0-1.09-.32-1.75-1.68-1.75a3.13 3.13 0 0 0-1.38.32zm4.08 3.25H52v-6.32h-1.1zm4.87-5v5h1.09v-5h1.31v-.85h-3.74v.85h1.33m2.37 1.4v3.63h1v-2.41c0-.81.48-1.07.91-1.07a1.45 1.45 0 0 1 .3 0v-1a1 1 0 0 0-.18 0 1.2 1.2 0 0 0-1.11.86v-.79h-.96a4.87 4.87 0 0 1 0 .71M63.29 38v.25c0 .77-.23 1.24-.85 1.24a.64.64 0 0 1-.68-.67c0-.63.54-.82 1.44-.82h.09m-2-1.12a2 2 0 0 1 1.2-.42.75.75 0 0 1 .81.83v.16h-.21c-1.33 0-2.3.29-2.3 1.47a1.26 1.26 0 0 0 1.31 1.28 1.41 1.41 0 0 0 1.22-.66 2.19 2.19 0 0 0 .06.59h1a4.8 4.8 0 0 1-.06-.77v-1.89c0-1.09-.32-1.75-1.67-1.75a3.14 3.14 0 0 0-1.39.32zM67 39.43c-.61 0-.77-.51-.77-1.51s.2-1.43.79-1.43.81.61.81 1.46-.21 1.48-.83 1.48m.83-5.62v2.6a1.19 1.19 0 0 0-1.13-.69c-1 0-1.51.83-1.51 2.24 0 1.21.45 2.24 1.53 2.24a1.18 1.18 0 0 0 1.17-.75v.68h1a5 5 0 0 1 0-.74v-5.58zm4.43 3.77h-1.55c0-.57.23-1.15.78-1.15s.73.39.73 1.15m.78 1.51a1.69 1.69 0 0 1-1.14.34c-.82 0-1.12-.45-1.12-1.19h2.53V38c0-1.77-.8-2.32-1.75-2.32-1.11 0-1.8 1-1.8 2.3a2 2 0 0 0 2 2.18 3.32 3.32 0 0 0 1.28-.24zm5.57.3c-.69 0-1.24-.58-1.24-2.2s.55-2.2 1.24-2.2 1.24.58 1.24 2.2-.55 2.2-1.24 2.2m-2.36-2.2c0 2.11 1.13 3 2.36 3s2.36-.91 2.36-3-1.13-3-2.36-3-2.39.88-2.39 3zm5.62-.69v3.63h1v-2.38c0-.81.48-1.07.91-1.07a1.36 1.36 0 0 1 .3 0v-1a1 1 0 0 0-.18 0 1.22 1.22 0 0 0-1.11.86v-.79h-1v.71m4.53 2.86c-.36 0-.69-.43-.69-1.45s.21-1.39.76-1.4.85.48.85 1.39-.26 1.46-.92 1.46m-1.58 2.37a4.49 4.49 0 0 0 1.5.27c1.61 0 2-1 2-2.33v-3.2-.68h-1v.67a1.25 1.25 0 0 0-1.16-.74c-1.14 0-1.58 1.05-1.58 2.25 0 1.75.92 2.16 1.53 2.16a1.21 1.21 0 0 0 1.16-.73v.41c0 .68-.16 1.36-1.15 1.36a2.71 2.71 0 0 1-1.29-.37zM91.51 38v.25c0 .77-.22 1.24-.85 1.24a.63.63 0 0 1-.67-.67c0-.63.53-.82 1.43-.82h.09m-2-1.12a2 2 0 0 1 1.2-.42.75.75 0 0 1 .81.83v.16h-.22c-1.33 0-2.3.29-2.3 1.47a1.26 1.26 0 0 0 1.31 1.28 1.41 1.41 0 0 0 1.22-.66 2.19 2.19 0 0 0 .06.59h1a4.8 4.8 0 0 1-.06-.77v-1.89c0-1.09-.31-1.75-1.67-1.75a3.18 3.18 0 0 0-1.39.32zm4-.38v3.63h1V37.6c0-.56.19-1 .75-1s.6.28.6.94v2.61h1.05v-2.8c0-.88-.3-1.61-1.29-1.61a1.27 1.27 0 0 0-1.16.73v-.66h-1a4.87 4.87 0 0 1 0 .71M98 40.13h1v-4.34h-1zM98 35h1.08v-1H98zm1.88 4.26v.9h3v-.79h-1.89l1.83-2.66v-.89h-2.91v.79h1.81l-1.87 2.65m6-1.23v.25c0 .77-.23 1.24-.86 1.24a.63.63 0 0 1-.67-.67c0-.63.54-.82 1.44-.82h.09m-2-1.12a2 2 0 0 1 1.19-.42.75.75 0 0 1 .82.83v.16h-.21c-1.34 0-2.3.29-2.3 1.47a1.25 1.25 0 0 0 1.3 1.28 1.44 1.44 0 0 0 1.23-.66 2.19 2.19 0 0 0 .06.59h1a6.34 6.34 0 0 1-.06-.77v-1.92c0-1.09-.31-1.75-1.67-1.75a3.09 3.09 0 0 0-1.38.32zm4.36-2v.9h-.7v.76h.7v2.38c0 .91.44 1.27 1.22 1.27a1.57 1.57 0 0 0 .71-.15v-.74a.87.87 0 0 1-.4.09c-.31 0-.48-.13-.48-.59v-2.28h.88v-.76h-.88v-1.22l-1 .32m2.7 5.24h1.05v-4.34h-1.05zm0-5.16H112v-1h-1.09zm3.93 4.48c-.68 0-.84-.77-.84-1.5s.16-1.49.84-1.49.84.77.84 1.49-.16 1.5-.84 1.5M112.87 38c0 1.82 1 2.25 1.92 2.25s1.92-.43 1.92-2.25-1-2.23-1.92-2.23-1.92.41-1.92 2.23zm4.67-1.45v3.63h1.06V37.6c0-.56.19-1 .74-1s.61.28.61.94v2.61h1v-2.8c0-.88-.3-1.61-1.29-1.61a1.27 1.27 0 0 0-1.16.73v-.66h-1a5 5 0 0 1 0 .71"/></svg>